<?xml version="1.0" encoding="UTF-8" standalone="no"?>
<!-- Generator: Adobe Illustrator 21.0.0, SVG Export Plug-In . SVG Version: 6.00 Build 0)  -->

<svg
   xmlns:dc="http://purl.org/dc/elements/1.1/"
   xmlns:cc="http://creativecommons.org/ns#"
   xmlns:rdf="http://www.w3.org/1999/02/22-rdf-syntax-ns#"
   xmlns:svg="http://www.w3.org/2000/svg"
   xmlns="http://www.w3.org/2000/svg"
   xmlns:sodipodi="http://sodipodi.sourceforge.net/DTD/sodipodi-0.dtd"
   xmlns:inkscape="http://www.inkscape.org/namespaces/inkscape"
   version="1.1"
   x="0px"
   y="0px"
   viewBox="0 0 841.9 595.3"
   style="enable-background:new 0 0 841.9 595.3;"
   xml:space="preserve"
   id="svg3851"
   sodipodi:docname="Logo - Silicon Life vortex.svg"
   inkscape:version="0.92.4 (5da689c313, 2019-01-14)"><metadata
   id="metadata3857"><rdf:RDF><cc:Work
       rdf:about=""><dc:format>image/svg+xml</dc:format><dc:type
         rdf:resource="http://purl.org/dc/dcmitype/StillImage" /><dc:title></dc:title></cc:Work></rdf:RDF></metadata><defs
   id="defs3855">
	

		
		
	</defs><sodipodi:namedview
   pagecolor="#ffffff"
   bordercolor="#666666"
   borderopacity="1"
   objecttolerance="10"
   gridtolerance="10"
   guidetolerance="10"
   inkscape:pageopacity="0"
   inkscape:pageshadow="2"
   inkscape:window-width="1734"
   inkscape:window-height="1462"
   id="namedview3853"
   showgrid="false"
   inkscape:zoom="2.8775408"
   inkscape:cx="420.95001"
   inkscape:cy="297.64999"
   inkscape:window-x="421"
   inkscape:window-y="206"
   inkscape:window-maximized="0"
   inkscape:current-layer="svg3851" />
<style
   type="text/css"
   id="style3818">
	.st0{fill:#282727;}
</style>
<g
   id="Logo_01">
</g>
<g
   id="g3823">
			<path
   class="st0"
   d="m 498.4,336.9 c -2.1,-6.3 -8.4,-13 -14,-14 -14.3,-1.9 -28.7,-5.7 -32.4,-24.3 6.2,17.9 17.4,19.1 33.2,22.1 8.8,2.1 13.1,11.6 13.2,16.2 z M 333.7,209.2 c 2.5,6.2 9.2,12.5 14.9,13.1 14.4,1.1 29,4 33.8,22.3 -7.3,-17.4 -18.5,-18 -34.5,-20 -8.9,-1.5 -13.8,-10.8 -14.2,-15.4 z m -13.8,83.2 c 6.4,1.8 15.5,0.3 19.4,-3.9 9.6,-10.8 20.8,-20.7 38.2,-13.3 -18.3,-4.8 -25.6,3.8 -36.9,15.3 -6.5,6.1 -16.9,4.4 -20.7,1.9 z m 5.2,-66.9 c 3.4,5.7 11,10.9 16.7,10.6 14.4,-1.2 29.3,-0.6 36.9,16.7 -9.9,-16.1 -21.1,-14.9 -37.2,-14.4 -9,0 -15.3,-8.4 -16.4,-12.9 z m 0.9,85.4 c 6.6,0.6 15.3,-2.6 18.4,-7.4 7.4,-12.4 16.6,-24.1 35.1,-20.2 -18.9,-1.3 -24.4,8.4 -33.4,21.8 -5.4,7.4 -15.9,7.6 -20.1,5.8 z M 318,246 c 4.7,4.7 13.3,8 18.8,6.3 13.7,-4.6 28.3,-7.6 39.8,7.4 -13.5,-13.2 -24.1,-9.4 -39.6,-5 -8.7,2 -16.8,-4.6 -19,-8.7 z m 16.8,80.4 c 6.6,-0.3 14.8,-4.6 17.3,-9.7 5.7,-13.2 13.3,-26.1 32.2,-24.6 -18.9,1.2 -23.1,11.5 -30.3,26 -4.3,7.9 -14.7,9.4 -19.2,8.3 z m -18.4,-58.5 c 5.6,3.5 14.8,4.7 19.7,1.8 12.2,-7.6 25.8,-13.9 40.4,-1.9 -16.2,-9.8 -25.6,-3.7 -39.7,4.1 -7.9,4.1 -17.3,-0.5 -20.4,-4 z m 31.3,72.8 c 6.5,-1.4 13.9,-6.9 15.5,-12.4 3.5,-14 8.9,-27.9 27.8,-29.4 -18.4,4.2 -21,15.1 -25.7,30.5 -3,8.5 -13,11.7 -17.6,11.3 z m 132.5,-160 c -6.2,2.4 -12.7,9 -13.4,14.7 -1.3,14.4 -4.4,29 -22.8,33.4 17.5,-7 18.3,-18.2 20.6,-34.2 1.7,-8.9 11,-13.6 15.6,-13.9 z m -80.4,-16.2 c -2.2,6.3 -1.4,15.5 2.4,19.7 10,10.3 19.1,22.2 10.5,39.1 6.1,-17.9 -1.9,-25.8 -12.5,-37.9 -5.7,-7 -3.2,-17.2 -0.4,-20.9 z m 64.2,7.3 c -5.8,3.3 -11.1,10.9 -10.9,16.6 1,14.4 0.2,29.3 -17.3,36.6 16.2,-9.7 15.3,-20.9 15,-37 0.2,-9 8.7,-15.2 13.2,-16.2 z m -85.4,-0.5 c -0.7,6.6 2.3,15.3 7.1,18.5 12.2,7.6 23.9,17 19.6,35.4 1.6,-18.8 -8,-24.6 -21.3,-33.8 -7.1,-5.3 -7.2,-15.8 -5.4,-20.1 z m 68,-5.4 c -5.1,4.2 -9.2,12.5 -8.1,18.1 3.3,14 4.9,28.9 -11.2,38.9 14.5,-12.2 11.7,-23 8.8,-38.9 -1.2,-9 6.2,-16.4 10.5,-18.1 z m -87.9,17.4 c 0.9,6.6 5.9,14.4 11.2,16.3 13.7,4.5 27.2,10.9 27.4,29.8 -2.9,-18.7 -13.6,-22 -28.6,-27.8 -8.2,-3.6 -10.7,-13.8 -10,-18.3 z m 63.1,-20.8 c -3.6,5.6 -4.9,14.7 -2.2,19.7 7.4,12.4 13.5,26 1.2,40.5 10,-16 4.1,-25.5 -3.5,-39.7 -3.8,-8.2 1,-17.6 4.5,-20.5 z m -78.3,34.3 c 2.1,6.3 8.4,13 14,14 14.3,1.9 28.7,5.7 32.4,24.3 -6.2,-17.9 -17.4,-19.1 -33.2,-22.1 -8.8,-2 -13.1,-11.6 -13.2,-16.2 z m 164.7,127.7 c -2.5,-6.2 -9.2,-12.5 -14.9,-13.1 -14.4,-1.1 -29,-4 -33.8,-22.3 7.3,17.4 18.5,18 34.5,20 8.9,1.6 13.8,10.8 14.2,15.4 z M 524,246.1 c -6.2,-2.3 -15.4,-1.7 -19.7,2.1 -10.5,9.9 -22.5,18.7 -39.3,9.9 17.8,6.4 25.8,-1.5 38.1,-11.9 7.1,-5.6 17.2,-2.9 20.9,-0.1 z m -7.2,62.1 c -3.4,-5.7 -11,-10.9 -16.7,-10.6 -14.4,1.2 -29.3,0.6 -36.9,-16.7 9.9,16.1 21.1,14.9 37.2,14.4 9,0 15.3,8.4 16.4,12.9 z m -0.9,-85.4 c -6.6,-0.6 -15.3,2.6 -18.4,7.4 -7.4,12.4 -16.6,24.1 -35.1,20.2 18.9,1.3 24.4,-8.4 33.4,-21.8 5.4,-7.4 15.8,-7.6 20.1,-5.8 z m 6.5,67.9 c -4.3,-5.1 -12.6,-9 -18.2,-7.8 -14,3.5 -28.8,5.3 -39.1,-10.6 12.4,14.3 23.2,11.3 39,8.2 9,-1.4 16.5,5.9 18.3,10.2 z m -16.2,-84.9 c -6.6,0.6 -14.6,5.2 -16.9,10.4 -5.2,13.4 -12.2,26.6 -31.2,25.9 18.8,-1.9 22.6,-12.5 29.2,-27.2 4.1,-8.1 14.4,-10.1 18.9,-9.1 z m 19.2,60 c -5.6,-3.5 -14.8,-4.7 -19.7,-1.8 -12.2,7.6 -25.8,13.9 -40.4,1.9 16.2,9.8 25.6,3.7 39.7,-4.1 8,-4.1 17.4,0.6 20.4,4 z M 420.1,371.2 c 3.6,-5.6 4.9,-14.7 2.2,-19.7 -7.4,-12.4 -13.5,-26 -1.2,-40.5 -10,16 -4.1,25.5 3.5,39.8 3.8,8.1 -1,17.5 -4.5,20.4 z m 63.1,-20.8 c -0.9,-6.6 -5.9,-14.4 -11.2,-16.3 -13.7,-4.5 -27.2,-10.9 -27.4,-29.8 2.9,18.7 13.6,22 28.6,27.8 8.2,3.6 10.7,13.8 10,18.3 z m -87.9,17.4 c 5.1,-4.2 9.2,-12.5 8.1,-18.1 -3.3,-14 -4.9,-28.9 11.2,-38.9 -14.5,12.2 -11.7,23 -8.9,38.9 1.3,9 -6.1,16.4 -10.4,18.1 z m 68,-5.4 c 0.7,-6.6 -2.3,-15.3 -7.1,-18.5 -12.2,-7.6 -23.9,-17 -19.6,-35.4 -1.6,18.8 8,24.6 21.3,33.8 7.1,5.4 7.2,15.9 5.4,20.1 z m -85.4,-0.5 c 5.8,-3.3 11.1,-10.9 10.9,-16.6 -1,-14.4 -0.2,-29.3 17.3,-36.6 -16.2,9.7 -15.3,20.9 -15,37 -0.2,9 -8.7,15.2 -13.2,16.2 z m 66.7,6.3 c 1.9,-6.4 0.5,-15.5 -3.6,-19.5 -10.6,-9.7 -20.3,-21.1 -12.7,-38.4 -5.1,18.2 3.4,25.6 14.7,37.1 6.1,6.6 4.2,17 1.6,20.8 z m -83,-15.2 c 6.2,-2.4 12.6,-9 13.4,-14.7 1.3,-14.4 4.4,-29 22.8,-33.4 -17.5,7 -18.3,18.2 -20.6,34.2 -1.6,8.9 -11,13.6 -15.6,13.9 z M 491.3,189.7 c -6.3,2 -13.2,8.2 -14.2,13.8 -2.2,14.2 -6.2,28.6 -24.9,32 18,-5.9 19.4,-17 22.7,-32.8 2.1,-8.9 11.8,-13 16.4,-13 z"
   id="path3821"
   inkscape:connector-curvature="0"
   style="fill:#282727" />
		</g>
</svg>