<?xml version="1.0" encoding="UTF-8" standalone="no"?>
<svg
   xmlns:dc="http://purl.org/dc/elements/1.1/"
   xmlns:cc="http://creativecommons.org/ns#"
   xmlns:rdf="http://www.w3.org/1999/02/22-rdf-syntax-ns#"
   xmlns:svg="http://www.w3.org/2000/svg"
   xmlns="http://www.w3.org/2000/svg"
   xmlns:sodipodi="http://sodipodi.sourceforge.net/DTD/sodipodi-0.dtd"
   xmlns:inkscape="http://www.inkscape.org/namespaces/inkscape"
   version="1.1"
   id="svg10"
   xml:space="preserve"
   width="128"
   height="128"
   viewBox="0 0 128 128"
   sodipodi:docname="logo.svg"
   inkscape:version="1.0.2 (e86c870879, 2021-01-15, custom)"><metadata
     id="metadata16"><rdf:RDF><cc:Work
         rdf:about=""><dc:format>image/svg+xml</dc:format><dc:type
           rdf:resource="http://purl.org/dc/dcmitype/StillImage" /><dc:title></dc:title></cc:Work></rdf:RDF></metadata><defs
     id="defs14"><clipPath
       clipPathUnits="userSpaceOnUse"
       id="clipPath26"><path
         d="M 0,1080 H 1920 V 0 H 0 Z"
         id="path24" /></clipPath><clipPath
       clipPathUnits="userSpaceOnUse"
       id="clipPath38"><path
         d="M 0,1080 H 1920 V 0 H 0 Z"
         id="path36" /></clipPath><clipPath
       clipPathUnits="userSpaceOnUse"
       id="clipPath50"><path
         d="M 0,1080 H 1920 V 0 H 0 Z"
         id="path48" /></clipPath></defs><sodipodi:namedview
     pagecolor="#ffffff"
     bordercolor="#666666"
     borderopacity="1"
     objecttolerance="10"
     gridtolerance="10"
     guidetolerance="10"
     inkscape:pageopacity="0"
     inkscape:pageshadow="2"
     inkscape:window-width="1822"
     inkscape:window-height="1057"
     id="namedview12"
     showgrid="false"
     inkscape:zoom="2.0515625"
     inkscape:cx="253.5698"
     inkscape:cy="117.8437"
     inkscape:window-x="90"
     inkscape:window-y="-8"
     inkscape:window-maximized="1"
     inkscape:current-layer="g18"
     inkscape:document-rotation="0"
     fit-margin-top="0"
     fit-margin-left="0"
     fit-margin-right="0"
     fit-margin-bottom="0"
     showguides="false"
     showborder="false" /><g
     id="g18"
     inkscape:groupmode="layer"
     inkscape:label="LogoEyeFlow-Monocromatica-Aprovada"
     transform="matrix(1.3333333,0,0,-1.3333333,-92.79865,1087.6527)"><g
       id="g44"
       transform="matrix(0.17414308,0,0,0.17414392,57.478807,673.68347)"><g
         id="g46"
         clip-path="url(#clipPath50)"><g
           id="g52"
           transform="translate(86.7183,444.6982)"><path
             d="m 0,0 c -15.863,42.952 -20.975,89.68 -14.19,135.69 0.238,-19.111 3.249,-38.318 9.078,-57.095 20.448,-65.886 72.479,-117.439 138.031,-138.366 36.311,-11.562 78.787,-8.409 114.811,2.485 27.425,8.218 54.42,21.786 76.063,40.707 26.279,22.981 51.076,49.594 58.816,84.424 -1.386,-20.306 -5.304,-40.468 -12.662,-59.389 -12.565,-32.25 -31.629,-64.118 -58.719,-86.287 -33.11,-26.995 -77.21,-40.469 -119.351,-43.86 -79.455,1.48 -136.884,31.581 -179.168,99.044 -1.481,2.771 -2.962,5.59 -4.3,8.409 l -0.048,0.095 z m 106.689,-134.544 c -34.066,22.456 -61.682,51.361 -82.084,84.186 67.607,-88.725 197.946,-103.393 288.773,-34.736 51.122,38.606 81.414,117.583 74.821,180.794 -0.621,5.829 -8.744,39.13 -10.607,44.051 11.228,-19.493 19.971,-40.611 24.271,-62.637 6.641,-33.97 7.645,-71.094 -3.392,-104.301 -13.521,-40.563 -43.574,-75.537 -77.353,-100.907 -67.893,-41.28 -132.537,-46.632 -204.348,-12.231 -2.771,1.529 -5.495,3.105 -8.17,4.777 l -0.096,0.048 z m 229.718,-34.4 c -53.846,-15.863 -112.422,-15.337 -167.558,3.726 29.526,-6.259 60.343,-5.637 90.3,2.055 66.794,17.152 120.88,66.507 145.056,130.96 22.503,60.01 5.829,142.905 -33.589,192.738 -6.784,8.6 -49.88,47.396 -77.83,57.286 17.916,-2.341 35.594,-6.737 52.126,-13.808 31.868,-13.617 63.115,-33.683 84.328,-61.443 25.992,-33.97 37.984,-78.5 39.991,-120.688 -4.014,-79.407 -35.93,-135.786 -104.731,-175.872 -2.818,-1.433 -5.685,-2.819 -8.552,-4.109 h -0.095 l -19.541,-10.702 z m 173.579,151.552 c -3.775,-8.457 -8.075,-16.818 -12.805,-24.988 -29.766,-51.553 -73.674,-89.871 -123.985,-112.852 42.237,23.316 73.77,60.535 90.206,106.116 23.268,64.643 12.805,137.554 -26.756,193.597 -21.978,31.104 -57.764,54.181 -93.12,67.272 -41.854,15.48 -109.03,16.77 -149.164,-6.641 15.002,11.945 31.39,22.169 49.116,29.384 32.489,13.234 69.135,21.357 104.3,16.866 36.312,-4.635 70.808,-21.644 99.714,-43.67 14.763,-11.228 25.275,-22.169 36.072,-37.267 39.131,-54.563 47.253,-109.556 31.056,-173.53 -1.099,-3.537 -2.245,-7.024 -3.536,-10.512 l -0.047,-0.096 z m 9.651,201.004 c 15.815,-46.966 19.016,-97.994 8.074,-147.588 4.683,48.878 -8.838,97.66 -38.652,138.176 -33.063,45.007 -82.418,74.677 -137.411,83.755 -45.676,7.597 -148.065,-21.022 -184.52,-74.247 -7.023,-7.311 -13.33,-15.576 -18.633,-24.75 -6.259,-10.893 -10.75,-22.312 -13.569,-33.922 1.768,19.828 5.924,39.464 13.33,57.812 13.043,32.393 32.585,64.261 60.153,86.287 28.428,22.647 64.405,35.356 100.048,40.564 18.299,2.676 33.301,2.532 51.553,-0.287 66.125,-10.32 110.798,-43.143 145.007,-99.235 1.768,-3.249 3.44,-6.546 5.017,-9.89 l 0.047,-0.096 z M 348.782,355.853 c 16.197,-5.638 32.107,-12.853 47.539,-21.787 44.768,-25.848 79.551,-62.351 102.962,-104.443 -31.677,47.109 -81.223,78.165 -138.175,86.335 -54.897,7.883 -110.224,-6.593 -154.754,-39.465 -37.219,-27.472 -85.379,-108.887 -74.868,-183.66 0.477,-24.032 7.835,-47.635 21.213,-67.798 -6.689,7.406 -12.804,15.242 -18.203,23.555 -19.016,29.289 -33.875,63.641 -35.977,98.854 -2.246,36.264 8.074,73.005 24.319,105.208 8.361,16.579 17.296,28.475 29.909,41.997 46.25,49.642 100.096,68.705 166.651,64.405 3.153,-0.382 6.307,-0.86 9.46,-1.386 h 0.096 z m -172.767,2.484 c 45.915,14.43 95.461,16.818 143.574,5.877 C 269.04,370.377 218.729,357 177.735,326.899 121.739,285.81 89.68,219.254 91.304,149.976 92.785,85.428 139.513,14.189 195.079,-17.631 c 0.047,-0.047 18.203,-8.122 31.438,-9.937 -18.729,2.054 -37.22,6.306 -54.563,13.521 -31.964,13.33 -63.402,33.063 -84.902,60.679 -26.278,33.683 -38.748,78.069 -41.185,120.258 3.249,79.407 34.639,136.12 103.058,176.875 2.819,1.481 5.637,2.867 8.504,4.157 l 0.096,0.047 z M 19.875,233.206 C 47.73,281.462 88.007,318.108 134.305,341.424 32.68,279.408 10.033,141.232 79.694,44.625 c 37.458,-51.983 115.719,-84.042 179.025,-78.882 13.617,0.526 43.909,10.367 48.973,12.518 -20.067,-13.522 -42.236,-24.415 -65.695,-30.244 -33.636,-8.314 -70.616,-11.18 -104.348,-1.768 C 96.512,-42.332 60.057,-14.047 33.015,18.442 -4.826,74.199 -16.723,128.954 -0.669,189.154 4.778,204.157 11.61,218.92 19.875,233.206"
             style="fill:#192245;fill-opacity:1;fill-rule:evenodd;stroke:none"
             id="path54" /></g></g></g></g></svg>
